# xmcd CD database file
#
# Track frame offsets:
#	150
#	11197
#	27260
#	41832
#	63682
#
# Disc length: 1067 seconds
#
# Revision: 0
# Processed by: cddbd v1.5.2PL0 Copyright (c) Steve Scherf et al.
# Submitted via: CDex 1.51
#
DISCID=42042905
DTITLE=Eternal Rest - Flamingo Road EP
DYEAR=1900
DGENRE=New Age
TTITLE0=Flamingo Road
TTITLE1=Nic's Way
TTITLE2=My Pizzaman Is A Terrorist
TTITLE3=The Wave
TTITLE4=Crying
EXTD=
EXTT0=
EXTT1=
EXTT2=
EXTT3=
EXTT4=
PLAYORDER=
